[STREAM]
index=0
codec_name=dvvideo
profile=unknown
codec_type=video
codec_tag_string=[0][0][0][0]
codec_tag=0x0000
width=720
height=576
coded_width=720
coded_height=576
closed_captions=0
has_b_frames=0
sample_aspect_ratio=16:15
display_aspect_ratio=4:3
pix_fmt=yuv420p
level=-99
color_range=tv
color_space=unknown
color_transfer=bt470m
color_primaries=unknown
chroma_location=topleft
field_order=bb
refs=1
id=N/A
r_frame_rate=25/1
avg_frame_rate=25/1
time_base=1/25
start_pts=0
start_time=0.000000
duration_ts=25
duration=1.000000
bit_rate=N/A
max_bit_rate=N/A
bits_per_raw_sample=N/A
nb_frames=N/A
nb_read_frames=N/A
nb_read_packets=N/A
DISPOSITION:default=0
DISPOSITION:dub=0
DISPOSITION:original=0
DISPOSITION:comment=0
DISPOSITION:lyrics=0
DISPOSITION:karaoke=0
DISPOSITION:forced=0
DISPOSITION:hearing_impaired=0
DISPOSITION:visual_impaired=0
DISPOSITION:clean_effects=0
DISPOSITION:attached_pic=0
DISPOSITION:timed_thumbnails=0
TAG:file_package_umid=0x060A2B340101010501010D4313000000F2E2FCE98722F14F947F08DE1EF7A8DA
[/STREAM]
[STREAM]
index=1
codec_name=pcm_s16le
profile=unknown
codec_type=audio
codec_tag_string=[0][0][0][0]
codec_tag=0x0000
sample_fmt=s16
sample_rate=48000
channels=1
channel_layout=unknown
bits_per_sample=16
id=N/A
r_frame_rate=0/0
avg_frame_rate=0/0
time_base=1/48000
start_pts=0
start_time=0.000000
duration_ts=48000
duration=1.000000
bit_rate=768000
max_bit_rate=N/A
bits_per_raw_sample=N/A
nb_frames=N/A
nb_read_frames=N/A
nb_read_packets=N/A
DISPOSITION:default=0
DISPOSITION:dub=0
DISPOSITION:original=0
DISPOSITION:comment=0
DISPOSITION:lyrics=0
DISPOSITION:karaoke=0
DISPOSITION:forced=0
DISPOSITION:hearing_impaired=0
DISPOSITION:visual_impaired=0
DISPOSITION:clean_effects=0
DISPOSITION:attached_pic=0
DISPOSITION:timed_thumbnails=0
TAG:file_package_umid=0x060A2B340101010501010D4313000000F2E2FCE98722F14F947F08DE1EF7A8DA
[/STREAM]
[STREAM]
index=2
codec_name=pcm_s16le
profile=unknown
codec_type=audio
codec_tag_string=[0][0][0][0]
codec_tag=0x0000
sample_fmt=s16
sample_rate=48000
channels=1
channel_layout=unknown
bits_per_sample=16
id=N/A
r_frame_rate=0/0
avg_frame_rate=0/0
time_base=1/48000
start_pts=0
start_time=0.000000
duration_ts=48000
duration=1.000000
bit_rate=768000
max_bit_rate=N/A
bits_per_raw_sample=N/A
nb_frames=N/A
nb_read_frames=N/A
nb_read_packets=N/A
DISPOSITION:default=0
DISPOSITION:dub=0
DISPOSITION:original=0
DISPOSITION:comment=0
DISPOSITION:lyrics=0
DISPOSITION:karaoke=0
DISPOSITION:forced=0
DISPOSITION:hearing_impaired=0
DISPOSITION:visual_impaired=0
DISPOSITION:clean_effects=0
DISPOSITION:attached_pic=0
DISPOSITION:timed_thumbnails=0
TAG:file_package_umid=0x060A2B340101010501010D4313000000F2E2FCE98722F14F947F08DE1EF7A8DA
[/STREAM]
[FORMAT]
format_name=mxf
duration=1.000000
bit_rate=30679040
TAG:operational_pattern_ul=060e2b34.04010101.0d010201.01010900
TAG:uid=a741d0c7-244a-bc4a-bd36-3323d04f8954
TAG:generation_uid=c1d7a0ee-89d6-754d-bd52-cdf42b53de9f
TAG:company_name=AVID
TAG:product_name=TRMG
TAG:product_version=2.97
TAG:product_uid=00000000-0000-0000-0000-000000000000
TAG:modification_date=2006-06-22T16:37:36.000000Z
TAG:material_package_umid=0x060A2B340101010501010D431300000008DC3900972905800000080046B1E89C
TAG:timecode=01:00:00:00
[/FORMAT]
